<svg width="24" height="24" viewBox="0 0 24 24" fill="none" xmlns="http://www.w3.org/2000/svg">
<path d="M21.9976 16.1264C22.0817 15.9503 22.1252 15.7576 22.125 15.5625V13.6875C22.1246 13.3395 21.9862 13.0059 21.7401 12.7599C21.4941 12.5138 21.1605 12.3754 20.8125 12.375H20.2448C20.2215 12.1688 20.1231 11.9785 19.9685 11.8402C19.8138 11.7018 19.6137 11.6253 19.4062 11.625H7.5C7.40054 11.625 7.30516 11.6645 7.23483 11.7348C7.16451 11.8052 7.125 11.9005 7.125 12V12.375H6.1238C6.23086 12.1492 6.2713 11.8976 6.24038 11.6497L5.72475 7.5247C5.68465 7.20746 5.53028 6.9157 5.29056 6.70407C5.05084 6.49244 4.74219 6.37545 4.42242 6.375H3.9375C3.74237 6.37477 3.54967 6.41831 3.37359 6.50241C3.35775 6.16521 3.21274 5.84704 2.96864 5.61386C2.72454 5.38069 2.40007 5.2504 2.0625 5.25H1.125C1.02554 5.25 0.930161 5.28951 0.859835 5.35984C0.789509 5.43016 0.75 5.52554 0.75 5.625V7.5H1.5V6H2.0625C2.21163 6.00016 2.35462 6.05948 2.46007 6.16493C2.56552 6.27039 2.62484 6.41337 2.625 6.5625V19.125H1.5V8.25H0.75V21.75C0.75 21.8495 0.789509 21.9448 0.859835 22.0152C0.930161 22.0855 1.02554 22.125 1.125 22.125H2.02359C2.49594 22.1254 2.95641 21.977 3.33959 21.7008C3.72278 21.4247 4.00919 21.0348 4.15814 20.5865L4.39528 19.875H17.25V19.125H3.375V16.875H21.9375C22.0866 16.8752 22.2296 16.9345 22.3351 17.0399C22.4405 17.1454 22.4998 17.2884 22.5 17.4375V19.125H18V19.875H19.6047L19.8419 20.5866C19.9908 21.0348 20.2772 21.4247 20.6604 21.7009C21.0436 21.977 21.5041 22.1254 21.9764 22.125H22.875C22.9745 22.125 23.0698 22.0855 23.1402 22.0152C23.2105 21.9448 23.25 21.8495 23.25 21.75V17.4375C23.2496 17.0999 23.1193 16.7755 22.8861 16.5314C22.653 16.2873 22.3348 16.1423 21.9976 16.1264ZM3.60469 19.875L3.44658 20.3493C3.34729 20.6482 3.15636 20.9081 2.90091 21.0922C2.64546 21.2764 2.33849 21.3753 2.02359 21.375H1.5V19.875H3.60469ZM19.5 12.4688V14.625H10.125V12.375H19.4062C19.4311 12.375 19.455 12.3849 19.4725 12.4025C19.4901 12.42 19.5 12.4439 19.5 12.4688ZM7.875 12.375H9.375V14.625H7.875V12.375ZM3.9375 7.125H4.42242C4.55946 7.12521 4.69173 7.17536 4.79446 7.26606C4.89718 7.35676 4.96333 7.48179 4.98052 7.61775L5.49614 11.7427C5.50603 11.8219 5.49898 11.9022 5.47545 11.9784C5.45193 12.0546 5.41247 12.125 5.35969 12.1847C5.30691 12.2445 5.24202 12.2924 5.16933 12.3252C5.09664 12.358 5.0178 12.375 4.93805 12.375H3.375V7.6875C3.37516 7.53837 3.43448 7.39539 3.53993 7.28993C3.64538 7.18448 3.78837 7.12516 3.9375 7.125ZM3.375 16.125V13.125H7.125V15C7.125 15.0995 7.16451 15.1948 7.23483 15.2652C7.30516 15.3355 7.40054 15.375 7.5 15.375H19.875C19.9745 15.375 20.0698 15.3355 20.1402 15.2652C20.2105 15.1948 20.25 15.0995 20.25 15V13.125H20.8125C20.9616 13.1252 21.1046 13.1845 21.2101 13.2899C21.3155 13.3954 21.3748 13.5384 21.375 13.6875V15.5625C21.3748 15.7116 21.3155 15.8546 21.2101 15.9601C21.1046 16.0655 20.9616 16.1248 20.8125 16.125H3.375ZM22.5 21.375H21.9764C21.6615 21.3753 21.3545 21.2764 21.0991 21.0922C20.8436 20.9081 20.6527 20.6482 20.5534 20.3494L20.3953 19.875H22.5V21.375Z" fill="#D1B06B"/>
<path d="M13.3992 9.47689L14.1769 9.90223L14.6023 10.6799C14.6345 10.739 14.6821 10.7882 14.74 10.8225C14.7979 10.8569 14.864 10.875 14.9312 10.875C14.9985 10.875 15.0646 10.8569 15.1225 10.8225C15.1804 10.7882 15.2279 10.739 15.2602 10.6799L15.6856 9.90223L16.4633 9.47689C16.5223 9.4446 16.5716 9.39701 16.6059 9.33913C16.6402 9.28124 16.6583 9.21519 16.6583 9.1479C16.6583 9.08061 16.6402 9.01455 16.6059 8.95667C16.5716 8.89879 16.5223 8.8512 16.4633 8.81891L15.6856 8.39356L15.2602 7.61591C15.2279 7.55687 15.1804 7.50761 15.1225 7.4733C15.0646 7.43898 14.9985 7.42088 14.9312 7.42088C14.864 7.42088 14.7979 7.43898 14.74 7.4733C14.6821 7.50761 14.6345 7.55687 14.6023 7.61591L14.1769 8.39356L13.3992 8.81891C13.3402 8.8512 13.2909 8.89879 13.2566 8.95667C13.2223 9.01455 13.2042 9.08061 13.2042 9.1479C13.2042 9.21519 13.2223 9.28124 13.2566 9.33913C13.2909 9.39701 13.3402 9.4446 13.3992 9.47689ZM14.6331 8.99877C14.6961 8.96435 14.7478 8.91262 14.7822 8.8497L14.9312 8.57717L15.0803 8.8497C15.1147 8.91262 15.1664 8.96435 15.2293 8.99877L15.5018 9.14773L15.2293 9.2968C15.1664 9.33119 15.1147 9.38292 15.0803 9.44586L14.9312 9.71834L14.7822 9.44586C14.7478 9.38294 14.6961 9.33121 14.6331 9.2968L14.3607 9.14773L14.6331 8.99877ZM8.82003 5.43106L9.59773 5.85641L10.0231 6.63406C10.0554 6.6931 10.103 6.74236 10.1608 6.77667C10.2187 6.81099 10.2848 6.82909 10.3521 6.82909C10.4194 6.82909 10.4854 6.81099 10.5433 6.77667C10.6012 6.74236 10.6488 6.6931 10.6811 6.63406L11.1064 5.85641L11.8841 5.43106C11.9431 5.39877 11.9924 5.35118 12.0267 5.2933C12.061 5.23541 12.0791 5.16936 12.0791 5.10207C12.0791 5.03478 12.061 4.96873 12.0267 4.91084C11.9924 4.85296 11.9431 4.80537 11.8841 4.77308L11.1064 4.34773L10.6811 3.57003C10.6488 3.51099 10.6012 3.46174 10.5433 3.42742C10.4854 3.39311 10.4194 3.375 10.3521 3.375C10.2848 3.375 10.2187 3.39311 10.1608 3.42742C10.103 3.46174 10.0554 3.51099 10.0231 3.57003L9.59773 4.34773L8.82003 4.77308C8.76099 4.80537 8.71174 4.85296 8.67742 4.91084C8.64311 4.96873 8.625 5.03478 8.625 5.10207C8.625 5.16936 8.64311 5.23541 8.67742 5.2933C8.71174 5.35118 8.76099 5.39877 8.82003 5.43106ZM10.054 4.95294C10.1169 4.91855 10.1686 4.86681 10.203 4.80387L10.3521 4.53144L10.5011 4.80387C10.5355 4.86679 10.5872 4.91852 10.6501 4.95294L10.9226 5.102L10.6501 5.25097C10.5872 5.28538 10.5355 5.33711 10.5011 5.40003L10.3521 5.67251L10.203 5.40003C10.1686 5.33711 10.1169 5.28538 10.054 5.25097L9.78153 5.102L10.054 4.95294ZM15.8659 3.93106L16.6436 4.35641L17.0689 5.13406C17.1012 5.1931 17.1488 5.24236 17.2067 5.27667C17.2646 5.31098 17.3306 5.32909 17.3979 5.32909C17.4652 5.32909 17.5312 5.31098 17.5891 5.27667C17.647 5.24236 17.6946 5.1931 17.7269 5.13406L18.1522 4.35641L18.9299 3.93106C18.989 3.89877 19.0382 3.85118 19.0725 3.7933C19.1069 3.73541 19.125 3.66936 19.125 3.60207C19.125 3.53478 19.1069 3.46873 19.0725 3.41084C19.0382 3.35296 18.989 3.30537 18.9299 3.27308L18.1522 2.84773L17.7269 2.07003C17.6946 2.01099 17.647 1.96174 17.5891 1.92742C17.5312 1.89311 17.4652 1.875 17.3979 1.875C17.3306 1.875 17.2646 1.89311 17.2067 1.92742C17.1488 1.96174 17.1012 2.01099 17.0689 2.07003L16.6436 2.84773L15.8659 3.27308C15.8069 3.30537 15.7576 3.35296 15.7233 3.41084C15.689 3.46873 15.6709 3.53478 15.6709 3.60207C15.6709 3.66936 15.689 3.73541 15.7233 3.7933C15.7576 3.85118 15.8069 3.89877 15.8659 3.93106ZM17.0998 3.45294C17.1628 3.41852 17.2145 3.36679 17.2489 3.30387L17.3979 3.03144L17.5469 3.30387C17.5813 3.36681 17.6331 3.41855 17.696 3.45294L17.9684 3.602L17.696 3.75097C17.6331 3.78538 17.5813 3.83711 17.5469 3.90003L17.3979 4.17251L17.2489 3.89998C17.2145 3.83706 17.1628 3.78533 17.0998 3.75092L16.8274 3.60195L17.0998 3.45294Z" fill="#D1B06B"/>
</svg>
