<svg width="34" height="34" viewBox="0 0 34 34" fill="none" xmlns="http://www.w3.org/2000/svg">
<path d="M29.75 24.9687C31.8006 24.9687 33.4688 23.3001 33.4688 21.25V15.9375C33.4688 13.8869 31.8006 12.2187 29.75 12.2187H29.2188V9.56248C29.2188 9.42159 29.1628 9.28646 29.0632 9.18683C28.9635 9.0872 28.8284 9.03123 28.6875 9.03123H15.9375C15.7966 9.03123 15.6615 9.0872 15.5618 9.18683C15.4622 9.28646 15.4062 9.42159 15.4062 9.56248V19.125H10.0938C10.0195 19.1249 9.94602 19.1404 9.87812 19.1705C9.81022 19.2006 9.74939 19.2446 9.69957 19.2997C9.64974 19.3548 9.61204 19.4197 9.58888 19.4903C9.56573 19.5608 9.55765 19.6355 9.56516 19.7094L9.62572 20.315L5.14463 21.8089C5.07365 21.8326 5.0085 21.8711 4.95342 21.9218C4.89833 21.9724 4.85457 22.0342 4.82498 22.1029C4.7954 22.1717 4.78066 22.2459 4.78173 22.3207C4.7828 22.3956 4.79965 22.4693 4.83119 22.5372L5.16641 23.256L2.62809 25.4314C2.12724 25.8614 1.78463 26.4465 1.65484 27.0937H1.0625C0.921604 27.0937 0.786478 27.1497 0.68685 27.2493C0.587221 27.349 0.53125 27.4841 0.53125 27.625V29.75C0.53125 29.8909 0.587221 30.026 0.68685 30.1256C0.786478 30.2253 0.921604 30.2812 1.0625 30.2812H1.87584L4.37325 33.278C4.47419 33.3986 4.62347 33.4687 4.78125 33.4687H29.2188C29.3765 33.4687 29.5258 33.3986 29.6268 33.278L32.1242 30.2812H32.9375C33.0784 30.2812 33.2135 30.2253 33.3132 30.1256C33.4128 30.026 33.4688 29.8909 33.4688 29.75V27.625C33.4688 27.4841 33.4128 27.349 33.3132 27.2493C33.2135 27.1497 33.0784 27.0937 32.9375 27.0937H29.2188V24.9687H29.75ZM29.75 13.2812C31.2147 13.2812 32.4062 14.4728 32.4062 15.9375V21.25C32.4062 22.7146 31.2147 23.9062 29.75 23.9062H29.2188V22.8437H29.75C30.6287 22.8437 31.3438 22.1287 31.3438 21.25V15.9375C31.3438 15.0588 30.6287 14.3437 29.75 14.3437H29.2188V13.2812H29.75ZM29.2188 15.4062H29.75C30.0427 15.4062 30.2812 15.6448 30.2812 15.9375V21.25C30.2812 21.5432 30.0427 21.7812 29.75 21.7812H29.2188V15.4062ZM28.1562 10.0937V12.2187H16.4688V10.0937H28.1562ZM19.0692 20.1875L18.3786 27.0937H11.3714L10.6808 20.1875H19.0692ZM20.0159 21.3982L23.7038 22.6275L21.6203 27.0937H19.4469L20.0159 21.3982ZM24.1172 24.2553L26.4302 26.2379C26.698 26.4674 26.8828 26.7665 26.9896 27.0937H22.7927L24.1172 24.2553ZM9.73409 21.3982L10.3036 27.0937H8.13025L6.04616 22.628L9.73409 21.3982ZM3.31978 26.2379L5.63284 24.2553L6.95725 27.0937H2.76038C2.8645 26.7624 3.05808 26.4662 3.31978 26.2379ZM28.9701 32.4062H5.02988L3.25922 30.2812H30.7408L28.9701 32.4062ZM32.4062 29.2187H1.59375V28.1562H32.4062V29.2187ZM28.0952 27.0937C27.9651 26.4464 27.6223 25.8611 27.1214 25.4309L24.5831 23.256L24.9183 22.5372C24.9502 22.4694 24.9673 22.3956 24.9685 22.3206C24.9698 22.2457 24.9551 22.1713 24.9255 22.1025C24.8958 22.0337 24.8519 21.9719 24.7967 21.9213C24.7414 21.8706 24.676 21.8323 24.6048 21.8089L20.1238 20.315L20.1843 19.7094C20.1917 19.6355 20.1836 19.561 20.1605 19.4905C20.1373 19.42 20.0996 19.3551 20.0499 19.3001C20.0001 19.245 19.9394 19.201 19.8716 19.1708C19.8038 19.1407 19.7305 19.1251 19.6562 19.125H16.4688V13.2812H28.1562V27.0937H28.0952ZM24.7488 4.24998C24.8885 4.3897 24.9688 4.58361 24.9688 4.78123C24.9688 4.97886 24.8885 5.17276 24.7488 5.31248L24.0619 5.99939L24.8131 6.75058L25.5 6.06367C25.8427 5.72155 26.0312 5.26573 26.0312 4.78123C26.0312 4.29673 25.8427 3.84092 25.5 3.4988L25.1887 3.18748C25.049 3.04776 24.9688 2.85386 24.9688 2.65623C24.9688 2.45861 25.049 2.2647 25.1887 2.12498L25.8756 1.43808L25.1244 0.68689L24.4375 1.3738C24.0948 1.71592 23.9062 2.17173 23.9062 2.65623C23.9062 3.14073 24.0948 3.59655 24.4375 3.93867L24.7488 4.24998ZM22.0926 4.24998C22.2323 4.3897 22.3125 4.58361 22.3125 4.78123C22.3125 4.97886 22.2323 5.17276 22.0926 5.31248L21.4057 5.99939L22.1568 6.75058L22.8438 6.06367C23.1864 5.72155 23.375 5.26573 23.375 4.78123C23.375 4.29673 23.1864 3.84092 22.8438 3.4988L22.5324 3.18748C22.3927 3.04776 22.3125 2.85386 22.3125 2.65623C22.3125 2.45861 22.3927 2.2647 22.5324 2.12498L23.2193 1.43808L22.4682 0.68689L21.7812 1.3738C21.4386 1.71592 21.25 2.17173 21.25 2.65623C21.25 3.14073 21.4386 3.59655 21.7812 3.93867L22.0926 4.24998ZM19.4363 4.24998C19.576 4.3897 19.6562 4.58361 19.6562 4.78123C19.6562 4.97886 19.576 5.17276 19.4363 5.31248L18.7494 5.99939L19.5006 6.75058L20.1875 6.06367C20.5302 5.72155 20.7188 5.26573 20.7188 4.78123C20.7188 4.29673 20.5302 3.84092 20.1875 3.4988L19.8762 3.18748C19.7365 3.04776 19.6562 2.85386 19.6562 2.65623C19.6562 2.45861 19.7365 2.2647 19.8762 2.12498L20.5631 1.43808L19.8119 0.68689L19.125 1.3738C18.7823 1.71592 18.5938 2.17173 18.5938 2.65623C18.5938 3.14073 18.7823 3.59655 19.125 3.93867L19.4363 4.24998Z" fill="#D1B06B"/>
<path d="M7.4375 14.3438C11.2455 14.3438 14.3438 11.2455 14.3438 7.4375C14.3438 3.6295 11.2455 0.53125 7.4375 0.53125C3.6295 0.53125 0.53125 3.6295 0.53125 7.4375C0.53125 11.2455 3.6295 14.3438 7.4375 14.3438ZM1.62084 6.90625C1.72744 5.72748 2.19093 4.60923 2.9495 3.70069L3.87441 4.62559L4.62559 3.87441L3.70069 2.9495C4.60909 2.1907 5.72741 1.72717 6.90625 1.62084V3.1875H7.96875V1.62084C9.14752 1.72744 10.2658 2.19093 11.1743 2.9495L10.2494 3.87441L11.0006 4.62559L11.9255 3.70069C12.6844 4.60903 13.1479 5.72739 13.2542 6.90625H11.6875V7.96875H13.2542C13.1476 9.14752 12.6841 10.2658 11.9255 11.1743L11.0006 10.2494L10.2494 11.0006L11.1743 11.9255C10.266 12.6844 9.14761 13.1479 7.96875 13.2542V11.6875H6.90625V13.2542C5.72748 13.1476 4.60923 12.6841 3.70069 11.9255L4.62559 11.0006L3.87441 10.2494L2.9495 11.1743C2.1907 10.2659 1.72717 9.14759 1.62084 7.96875H3.1875V6.90625H1.62084Z" fill="#D1B06B"/>
<path d="M7.8132 7.81309C7.8626 7.76383 7.90179 7.70528 7.9285 7.64083C7.95521 7.57637 7.96893 7.50727 7.96886 7.4375V4.25H6.90636V7.21756L4.93701 9.18691L5.6882 9.93809L7.8132 7.81309Z" fill="#D1B06B"/>
</svg>
