<svg width="34" height="34" viewBox="0 0 34 34" fill="none" xmlns="http://www.w3.org/2000/svg">
<path d="M29.2187 15.9773V15.4062C29.2187 13.8564 28.6031 12.37 27.5071 11.2741C26.4112 10.1782 24.9248 9.5625 23.375 9.5625C21.8251 9.5625 20.3387 10.1782 19.2428 11.2741C18.1469 12.37 17.5312 13.8564 17.5312 15.4062V17.5312H15.4062C15.2653 17.5312 15.1302 17.5872 15.0306 17.6868C14.931 17.7865 14.875 17.9216 14.875 18.0625V20.1875C14.875 20.3284 14.931 20.4635 15.0306 20.5632C15.1302 20.6628 15.2653 20.7188 15.4062 20.7188H15.4594L15.9625 25.5H13.8125V2.65625C13.8125 2.23356 13.6446 1.82818 13.3457 1.5293C13.0468 1.23041 12.6414 1.0625 12.2187 1.0625C11.796 1.0625 11.3907 1.23041 11.0918 1.5293C10.7929 1.82818 10.625 2.23356 10.625 2.65625V25.5H5.31249C5.0308 25.5003 4.76074 25.6124 4.56155 25.8116C4.36237 26.0108 4.25032 26.2808 4.24999 26.5625V28.0908L3.20336 32.2774C3.18378 32.3557 3.18231 32.4375 3.19906 32.5165C3.21581 32.5954 3.25033 32.6696 3.30002 32.7332C3.3497 32.7968 3.41323 32.8483 3.48578 32.8837C3.55834 32.9191 3.63801 32.9375 3.71874 32.9375H28.6875C28.8284 32.9375 28.9635 32.8815 29.0631 32.7819C29.1628 32.6823 29.2187 32.5471 29.2187 32.4062V30.3091L29.9686 23.1856C30.2254 23.0447 30.4395 22.8371 30.588 22.5846C30.7365 22.3321 30.8141 22.0442 30.8125 21.7512V17.9297C30.812 17.4706 30.6531 17.0257 30.3628 16.6701C30.0725 16.3144 29.6684 16.0698 29.2187 15.9773ZM18.5937 15.4062C18.5937 14.7784 18.7174 14.1566 18.9577 13.5765C19.198 12.9965 19.5502 12.4694 19.9941 12.0254C20.4381 11.5814 20.9652 11.2292 21.5453 10.989C22.1254 10.7487 22.7471 10.625 23.375 10.625C24.0029 10.625 24.6246 10.7487 25.2047 10.989C25.7848 11.2292 26.3119 11.5814 26.7558 12.0254C27.1998 12.4694 27.552 12.9965 27.7923 13.5765C28.0326 14.1566 28.1562 14.7784 28.1562 15.4062V15.9375H23.2422C22.7831 15.938 22.3382 16.0968 21.9826 16.3872C21.6269 16.6775 21.3823 17.0816 21.2898 17.5312H18.5937V15.4062ZM15.9375 18.5938H21.25V19.6562H15.9375V18.5938ZM16.5276 20.7188H21.25V21.752C21.2509 21.9689 21.2946 22.1834 21.3787 22.3833C21.4627 22.5831 21.5855 22.7644 21.7398 22.9167C21.8878 23.0645 22.0639 23.1812 22.2577 23.2599C22.4514 23.3386 22.659 23.3777 22.8682 23.3749C23.2518 23.3681 23.6201 23.2237 23.9062 22.9681C24.1981 23.2301 24.5765 23.3749 24.9687 23.3749C25.3609 23.3749 25.7393 23.2301 26.0312 22.9681C26.3231 23.23 26.7013 23.3748 27.0934 23.3749C27.4854 23.375 27.8637 23.2304 28.1557 22.9687C28.3618 23.1539 28.613 23.2815 28.884 23.3388L28.2094 29.75H20.6023L20.1875 28.0908V26.5625C20.1872 26.2808 20.0751 26.0108 19.8759 25.8116C19.6767 25.6124 19.4067 25.5003 19.125 25.5H17.0307L16.5276 20.7188ZM11.6875 2.65625C11.6875 2.51535 11.7435 2.38023 11.8431 2.2806C11.9427 2.18097 12.0778 2.125 12.2187 2.125C12.3596 2.125 12.4948 2.18097 12.5944 2.2806C12.694 2.38023 12.75 2.51535 12.75 2.65625V25.5H11.6875V2.65625ZM5.31249 26.5625H19.125V27.625H5.31249V26.5625ZM6.52413 31.875L7.32101 28.6875H8.35084L7.55396 31.875H6.52413ZM5.19601 28.6875H6.22584L5.42896 31.875H4.39913L5.19601 28.6875ZM9.44601 28.6875H10.5545L10.156 31.875H8.64913L9.44601 28.6875ZM11.2268 31.875L11.6252 28.6875H12.8123L13.2107 31.875H11.2268ZM14.2814 31.875L13.883 28.6875H14.9915L15.7883 31.875H14.2814ZM16.8835 31.875L16.0866 28.6875H17.1165L17.9133 31.875H16.8835ZM19.0085 31.875L18.2116 28.6875H19.2415L20.0383 31.875H19.0085ZM28.1562 31.875H21.1335L20.8679 30.8125H28.1562V31.875ZM29.75 20.1875V21.7512C29.7525 21.8912 29.7017 22.0269 29.6081 22.1309C29.5144 22.235 29.3848 22.2996 29.2453 22.3118C29.1734 22.3154 29.1015 22.3044 29.034 22.2793C28.9665 22.2543 28.9048 22.2158 28.8526 22.1662C28.8004 22.1166 28.7589 22.0568 28.7305 21.9907C28.7021 21.9245 28.6875 21.8533 28.6875 21.7812V19.6562H27.625V21.7812C27.625 21.9221 27.569 22.0573 27.4694 22.1569C27.3698 22.2565 27.2346 22.3125 27.0937 22.3125C26.9528 22.3125 26.8177 22.2565 26.7181 22.1569C26.6185 22.0573 26.5625 21.9221 26.5625 21.7812V19.6562H25.5V21.7812C25.5 21.9221 25.444 22.0573 25.3444 22.1569C25.2448 22.2565 25.1096 22.3125 24.9687 22.3125C24.8278 22.3125 24.6927 22.2565 24.5931 22.1569C24.4935 22.0573 24.4375 21.9221 24.4375 21.7812V19.6562H23.375V21.7812C23.3751 21.9207 23.3204 22.0547 23.2225 22.1541C23.1247 22.2535 22.9916 22.3104 22.8521 22.3125H22.8448C22.7095 22.3111 22.5803 22.2562 22.4854 22.1598C22.4312 22.1065 22.388 22.0431 22.3584 21.9732C22.3288 21.9032 22.3133 21.8281 22.3128 21.7521V17.9297C22.313 17.6832 22.411 17.4469 22.5853 17.2726C22.7596 17.0983 22.996 17.0003 23.2424 17H28.8206C29.0671 17.0003 29.3034 17.0983 29.4777 17.2726C29.652 17.4469 29.75 17.6832 29.7503 17.9297L29.75 20.1875Z" fill="#D1B06B"/>
<path d="M26.0314 26.0312H27.0939V28.6875H26.0314V26.0312ZM26.0314 23.9062H27.0939V24.9687H26.0314V23.9062ZM6.40241 18.2305C6.43769 18.3362 6.50533 18.4282 6.59578 18.4934C6.68623 18.5586 6.79488 18.5936 6.90637 18.5936C7.01785 18.5936 7.12651 18.5586 7.21696 18.4934C7.3074 18.4282 7.37505 18.3362 7.41033 18.2305C7.55013 17.8144 7.78442 17.4363 8.09481 17.1259C8.4052 16.8156 8.78327 16.5813 9.19938 16.4415C9.30518 16.4063 9.39721 16.3386 9.46243 16.2482C9.52764 16.1577 9.56274 16.049 9.56274 15.9375C9.56274 15.826 9.52764 15.7173 9.46243 15.6268C9.39721 15.5363 9.30518 15.4687 9.19938 15.4335C8.78327 15.2937 8.4052 15.0594 8.09481 14.749C7.78442 14.4386 7.55013 14.0606 7.41033 13.6445C7.37505 13.5387 7.3074 13.4467 7.21696 13.3816C7.12651 13.3164 7.01785 13.2813 6.90637 13.2813C6.79488 13.2813 6.68623 13.3164 6.59578 13.3816C6.50533 13.4467 6.43769 13.5387 6.40241 13.6445C6.26261 14.0606 6.02832 14.4386 5.71793 14.749C5.40753 15.0594 5.02946 15.2937 4.61336 15.4335C4.50756 15.4687 4.41553 15.5363 4.35031 15.6268C4.28509 15.7173 4.25 15.826 4.25 15.9375C4.25 16.049 4.28509 16.1577 4.35031 16.2482C4.41553 16.3386 4.50756 16.4063 4.61336 16.4415C5.02946 16.5813 5.40753 16.8156 5.71793 17.1259C6.02832 17.4363 6.26261 17.8144 6.40241 18.2305ZM6.90637 14.979C7.16793 15.3516 7.49221 15.6759 7.86474 15.9375C7.49221 16.1991 7.16793 16.5234 6.90637 16.8959C6.6448 16.5234 6.32053 16.1991 5.94799 15.9375C6.32053 15.6759 6.6448 15.3516 6.90637 14.979ZM32.5744 9.05846C32.1583 8.91867 31.7802 8.6844 31.4698 8.37401C31.1594 8.06363 30.9251 7.68557 30.7853 7.26947C30.75 7.16372 30.6824 7.07174 30.592 7.00656C30.5015 6.94138 30.3929 6.90631 30.2814 6.90631C30.1699 6.90631 30.0612 6.94138 29.9708 7.00656C29.8803 7.07174 29.8127 7.16372 29.7774 7.26947C29.6376 7.68557 29.4033 8.06363 29.0929 8.37401C28.7825 8.6844 28.4045 8.91867 27.9884 9.05846C27.8826 9.0937 27.7905 9.16135 27.7253 9.25181C27.6601 9.34227 27.625 9.45096 27.625 9.56248C27.625 9.674 27.6601 9.78269 27.7253 9.87315C27.7905 9.96361 27.8826 10.0313 27.9884 10.0665C28.4045 10.2063 28.7825 10.4406 29.0929 10.7509C29.4033 11.0613 29.6376 11.4394 29.7774 11.8555C29.8127 11.9612 29.8803 12.0532 29.9708 12.1184C30.0612 12.1836 30.1699 12.2186 30.2814 12.2186C30.3929 12.2186 30.5015 12.1836 30.592 12.1184C30.6824 12.0532 30.75 11.9612 30.7853 11.8555C30.9251 11.4394 31.1594 11.0613 31.4698 10.7509C31.7802 10.4406 32.1583 10.2063 32.5744 10.0665C32.6802 10.0313 32.7722 9.96361 32.8374 9.87315C32.9026 9.78269 32.9377 9.674 32.9377 9.56248C32.9377 9.45096 32.9026 9.34227 32.8374 9.25181C32.7722 9.16135 32.6802 9.0937 32.5744 9.05846ZM30.2814 10.5209C30.0198 10.1484 29.6955 9.82407 29.323 9.56248C29.6955 9.30089 30.0198 8.97659 30.2814 8.60404C30.5429 8.97659 30.8672 9.30089 31.2397 9.56248C30.8672 9.82407 30.5429 10.1484 30.2814 10.5209ZM3.71887 24.9687C3.83036 24.9687 3.93903 24.9336 4.02947 24.8684C4.11992 24.8033 4.18757 24.7113 4.22283 24.6055C4.36263 24.1894 4.59692 23.8113 4.90731 23.5009C5.2177 23.1906 5.59577 22.9563 6.01188 22.8165C6.11768 22.7813 6.20971 22.7136 6.27493 22.6232C6.34014 22.5327 6.37524 22.424 6.37524 22.3125C6.37524 22.201 6.34014 22.0923 6.27493 22.0018C6.20971 21.9113 6.11768 21.8437 6.01188 21.8085C5.59577 21.6687 5.2177 21.4344 4.90731 21.124C4.59692 20.8136 4.36263 20.4356 4.22283 20.0195C4.18755 19.9137 4.1199 19.8217 4.02946 19.7566C3.93901 19.6914 3.83035 19.6563 3.71887 19.6563C3.60738 19.6563 3.49873 19.6914 3.40828 19.7566C3.31783 19.8217 3.25018 19.9137 3.21491 20.0195C3.07511 20.4356 2.84082 20.8136 2.53043 21.124C2.22003 21.4344 1.84196 21.6687 1.42586 21.8085C1.32006 21.8437 1.22803 21.9113 1.16281 22.0018C1.09759 22.0923 1.0625 22.201 1.0625 22.3125C1.0625 22.424 1.09759 22.5327 1.16281 22.6232C1.22803 22.7136 1.32006 22.7813 1.42586 22.8165C1.84196 22.9563 2.22003 23.1906 2.53043 23.5009C2.84082 23.8113 3.07511 24.1894 3.21491 24.6055C3.25017 24.7113 3.31781 24.8033 3.40826 24.8684C3.49871 24.9336 3.60737 24.9687 3.71887 24.9687ZM3.71887 21.354C3.98043 21.7266 4.30471 22.0509 4.67724 22.3125C4.30471 22.5741 3.98043 22.8984 3.71887 23.2709C3.4573 22.8984 3.13303 22.5741 2.76049 22.3125C3.13303 22.0509 3.4573 21.7266 3.71887 21.354Z" fill="#D1B06B"/>
</svg>
