<svg width="34" height="34" viewBox="0 0 34 34" fill="none" xmlns="http://www.w3.org/2000/svg">
<path d="M33.7805 21.7182C33.5532 21.5639 33.2432 21.6235 33.088 21.8503C33.0463 21.9115 32.0429 23.3478 30.2004 23.3478C28.3579 23.3478 27.3546 21.9115 27.3138 21.852C27.1303 21.5612 26.6686 21.5615 26.4853 21.8524C26.4752 21.8673 25.4605 23.3479 23.6014 23.3479C22.0432 23.3479 21.0854 22.3208 20.8022 21.9677V14.2349H33.501C33.7767 14.2349 34.0001 14.0115 34.0001 13.7359C34.0001 13.4602 33.7767 13.2368 33.501 13.2368H29.488V9.59977C29.488 6.30018 26.8354 3.59014 23.575 3.5586C21.971 3.54246 20.4583 4.15752 19.3162 5.28861C18.7632 5.83627 18.3317 6.47231 18.0324 7.16419C17.11 5.06356 15.0355 3.58191 12.6298 3.5586C12.61 3.55841 12.5902 3.55832 12.5704 3.55833C10.9883 3.55833 9.49894 4.17146 8.3709 5.28861C7.22858 6.41998 6.59938 7.92627 6.59938 9.52998V13.2369H0.53689C0.261237 13.2369 0.0378468 13.4603 0.0378468 13.736C0.0378468 14.0116 0.261237 14.235 0.53689 14.235H6.59938V16.2057C6.59938 16.4813 6.82277 16.7047 7.09842 16.7047C7.37408 16.7047 7.59747 16.4813 7.59747 16.2057V9.52998C7.59747 8.19462 8.12155 6.9402 9.07328 5.9977C10.0247 5.05553 11.2833 4.54075 12.6202 4.55662C15.3355 4.58285 17.5447 6.84524 17.5447 9.59977V13.2368H16.2833V9.52998C16.2833 7.51787 14.6469 5.8528 12.6356 5.81834C12.6143 5.818 12.5933 5.81781 12.5722 5.81781C11.609 5.81781 10.6964 6.19453 9.99633 6.8827C9.27343 7.59331 8.85886 8.57898 8.85886 9.58696V22.9806C8.1936 22.6465 7.7672 22.1748 7.5974 21.962V18.2017C7.5974 17.9261 7.37401 17.7027 7.09836 17.7027C6.82271 17.7027 6.59932 17.9261 6.59932 18.2017V21.9671C6.3151 22.3215 5.35739 23.3478 3.79976 23.3478C1.95719 23.3478 0.953921 21.9115 0.913148 21.852C0.838659 21.7437 0.724451 21.6692 0.595328 21.6446C0.466206 21.62 0.332596 21.6473 0.223518 21.7207C0.114439 21.794 0.0387013 21.9074 0.0127526 22.0363C-0.013196 22.1651 0.0127404 22.299 0.0849288 22.4089C0.138054 22.488 1.41465 24.3459 3.79969 24.3459C5.4303 24.3459 6.54274 23.4776 7.10035 22.9029C7.65796 23.4776 8.77047 24.3459 10.401 24.3459C12.0312 24.3459 13.1424 23.478 13.6995 22.9031C14.2573 23.4779 15.3697 24.3459 16.9999 24.3459C18.6305 24.3459 19.7429 23.4776 20.3005 22.9029C20.8581 23.4776 21.9706 24.3459 23.6012 24.3459C25.2314 24.3459 26.3426 23.478 26.8997 22.9031C27.4575 23.4779 28.5698 24.3459 30.2 24.3459C32.5851 24.3459 33.8617 22.488 33.9148 22.4089C34.0685 22.1808 34.008 21.8724 33.7805 21.7182ZM9.85694 17.7027H17.5447V19.0999H9.85694V17.7027ZM17.5447 16.7046H9.85694V14.2349H17.5447V16.7046ZM10.6961 7.5945C11.2191 7.08039 11.9016 6.80407 12.6184 6.81629C14.0889 6.84152 15.2853 8.05888 15.2853 9.53005V13.237H9.85701V9.58702C9.85694 8.84487 10.1628 8.11865 10.6961 7.5945ZM14.1135 21.852C13.9302 21.5628 13.4708 21.5626 13.2861 21.8508C13.2444 21.9119 12.2434 23.3478 10.4012 23.3478C10.2106 23.3478 10.0295 23.3317 9.85694 23.3041V20.0979H17.5447V23.304C17.3646 23.3331 17.1825 23.3477 17.0001 23.3478C15.1576 23.3478 14.1542 21.9115 14.1135 21.852ZM18.5427 22.9804V9.52998C18.5427 8.19462 19.0668 6.9402 20.0185 5.9977C20.9699 5.05553 22.2286 4.54075 23.5654 4.55662C26.2807 4.58285 28.4899 6.84524 28.4899 9.59977V13.2368H27.2285V12.1275C27.2285 11.8519 27.0051 11.6285 26.7294 11.6285C26.4538 11.6285 26.2304 11.8519 26.2304 12.1275V13.2368H20.8021V9.58689C20.8021 8.8448 21.108 8.11858 21.6412 7.59437C22.1642 7.08025 22.8455 6.80394 23.5636 6.81616C25.0341 6.84139 26.2304 8.05875 26.2304 9.52991V10.1314C26.2304 10.4071 26.4538 10.6305 26.7294 10.6305C27.0051 10.6305 27.2285 10.4071 27.2285 10.1314V9.52991C27.2285 7.51781 25.5921 5.85273 23.5808 5.81827C23.5595 5.81794 23.5386 5.81774 23.5174 5.81774C22.5542 5.81774 21.6417 6.19446 20.9415 6.88263C20.2187 7.59324 19.8041 8.57891 19.8041 9.58689V21.9614C19.6338 22.175 19.2074 22.6465 18.5427 22.9804ZM13.7019 29.4437C11.8593 29.4437 10.856 28.0074 10.8152 27.9479C10.632 27.6588 10.173 27.6586 9.98809 27.9463C9.94632 28.0075 8.94299 29.4438 7.10048 29.4438C5.25798 29.4438 4.25464 28.0075 4.21387 27.948C4.17731 27.8936 4.13039 27.8469 4.0758 27.8107C4.02121 27.7744 3.96001 27.7493 3.8957 27.7367C3.83138 27.7241 3.76522 27.7243 3.70099 27.7372C3.63675 27.7502 3.5757 27.7757 3.52132 27.8123C3.46694 27.8488 3.42029 27.8958 3.38404 27.9503C3.34778 28.0049 3.32264 28.0661 3.31004 28.1304C3.29744 28.1947 3.29764 28.2609 3.31061 28.3251C3.32358 28.3893 3.34908 28.4504 3.38565 28.5048C3.43878 28.5839 4.7153 30.4418 7.10042 30.4418C8.73102 30.4418 9.84346 29.5734 10.4011 28.9988C10.9587 29.5734 12.0712 30.4418 13.7018 30.4418C13.9774 30.4418 14.2008 30.2184 14.2008 29.9427C14.2008 29.6671 13.9775 29.4437 13.7019 29.4437ZM30.4794 27.8138C30.2518 27.6598 29.942 27.7197 29.787 27.9467C29.7453 28.0078 28.7443 29.4437 26.9021 29.4437C25.0595 29.4437 24.0563 28.0074 24.0155 27.9479C23.8321 27.6573 23.3707 27.6574 23.1873 27.9479C23.1772 27.9628 22.16 29.4437 20.3007 29.4437C18.4581 29.4437 17.4548 28.0074 17.414 27.9479C17.2307 27.6587 16.7713 27.6585 16.5866 27.9467C16.5826 27.9525 16.1799 28.5351 15.4371 28.9686C15.3805 29.0017 15.3309 29.0455 15.2913 29.0977C15.2516 29.1499 15.2226 29.2094 15.206 29.2728C15.1893 29.3362 15.1853 29.4022 15.1942 29.4671C15.203 29.5321 15.2246 29.5946 15.2577 29.6512C15.2907 29.7078 15.3346 29.7574 15.3868 29.797C15.4389 29.8367 15.4984 29.8657 15.5618 29.8823C15.6252 29.899 15.6913 29.903 15.7562 29.8941C15.8211 29.8853 15.8837 29.8637 15.9403 29.8306C16.3987 29.563 16.7532 29.252 16.9996 28.9983C17.5571 29.573 18.6696 30.4418 20.3007 30.4418C21.9313 30.4418 23.0437 29.5734 23.6013 28.9988C24.1589 29.5734 25.2714 30.4418 26.902 30.4418C29.2874 30.4418 30.5615 28.5835 30.6146 28.5044C30.7679 28.276 30.707 27.9678 30.4794 27.8138Z" fill="#D1B06B"/>
</svg>
