<svg width="34" height="34" viewBox="0 0 34 34" fill="none" xmlns="http://www.w3.org/2000/svg">
<path d="M7.75072 19.1817C6.66451 19.022 5.57082 18.9183 4.47397 18.8707C3.99301 18.841 3.35905 19.0917 3.24926 20.3044C3.22878 20.6093 3.2582 20.9156 3.33639 21.2111C3.40924 21.5196 3.57349 21.799 3.80766 22.0127C4.04183 22.2264 4.33503 22.3644 4.64893 22.4088L9.33739 23.069C9.3608 23.0729 9.38449 23.0748 9.40822 23.0747C9.4998 23.0748 9.58985 23.0512 9.66962 23.0062C9.74939 22.9612 9.81618 22.8964 9.86351 22.818C9.91084 22.7396 9.93709 22.6503 9.93973 22.5587C9.94236 22.4672 9.92129 22.3765 9.87855 22.2955C8.33651 19.3623 7.94126 19.2405 7.75072 19.1817ZM4.79697 21.357C4.69398 21.3412 4.59808 21.2949 4.52168 21.2241C4.44528 21.1532 4.3919 21.0611 4.36843 20.9596C4.31901 20.7776 4.29845 20.5891 4.30751 20.4007C4.30919 20.2395 4.34567 20.0805 4.41447 19.9346H4.42934C5.64059 20.0104 7.00272 20.1202 7.37176 20.1854C7.77057 20.719 8.12723 21.2829 8.43851 21.8719L4.79697 21.357ZM29.5256 18.8707C28.4287 18.9183 27.3351 19.022 26.2488 19.1817C26.0583 19.2405 25.6623 19.3623 24.1182 22.2983C24.0754 22.3793 24.0544 22.47 24.057 22.5616C24.0596 22.6531 24.0859 22.7424 24.1332 22.8208C24.1805 22.8992 24.2473 22.964 24.3271 23.009C24.4069 23.054 24.4969 23.0776 24.5885 23.0775C24.6122 23.0776 24.6359 23.0757 24.6593 23.0718L29.3478 22.4117C29.6617 22.3673 29.9549 22.2292 30.1891 22.0155C30.4232 21.8018 30.5875 21.5224 30.6603 21.2139C30.7383 20.9184 30.7677 20.6122 30.7475 20.3072C30.6398 19.0917 30.0023 18.8417 29.5256 18.8707ZM29.6311 20.9596C29.6077 21.0611 29.5543 21.1532 29.4779 21.2241C29.4015 21.2949 29.3056 21.3412 29.2026 21.357L25.5611 21.8698C25.8725 21.2811 26.2289 20.7172 26.6271 20.1833C27.0025 20.1174 28.3661 20.0076 29.5766 19.9325C29.6538 20.0764 29.6935 20.2374 29.6921 20.4007C29.7011 20.5891 29.6806 20.7776 29.6311 20.9596ZM24.3541 19.6761C24.3005 19.5996 24.2279 19.5386 24.1433 19.4991C24.0588 19.4595 23.9654 19.4429 23.8724 19.4508C23.8235 19.4551 18.9438 19.8758 17.0016 19.8758C15.0593 19.8758 10.1789 19.4508 10.1307 19.4508C10.0377 19.4426 9.94417 19.4591 9.85956 19.4987C9.77496 19.5382 9.70229 19.5994 9.6489 19.676C9.5955 19.7526 9.56327 19.8419 9.55547 19.935C9.54766 20.028 9.56455 20.1215 9.60443 20.2059L11.0034 23.1746C11.0443 23.2608 11.1076 23.3345 11.1867 23.388C11.2659 23.4414 11.3579 23.4727 11.4532 23.4784L16.9987 23.7958L22.5528 23.4784C22.6481 23.4728 22.7402 23.4416 22.8193 23.3882C22.8985 23.3347 22.9618 23.2609 23.0026 23.1746L24.4015 20.2059C24.4411 20.1213 24.4575 20.0277 24.4492 19.9346C24.4409 19.8416 24.408 19.7524 24.3541 19.6761ZM22.1738 22.4386L17.0001 22.7375L11.8293 22.4386L10.9573 20.5884C12.4866 20.7131 15.5183 20.9426 17.0023 20.9426C18.4862 20.9426 21.5186 20.7131 23.0486 20.5884L22.1738 22.4386ZM20.0538 3.53743L20.8372 3.83068C21.0933 3.92644 21.326 4.07602 21.5194 4.26932C21.7128 4.46263 21.8626 4.69517 21.9585 4.95126L22.2517 5.73751C22.29 5.83803 22.3579 5.92454 22.4464 5.98558C22.535 6.04663 22.64 6.07931 22.7476 6.07931C22.8551 6.07931 22.9601 6.04663 23.0487 5.98558C23.1372 5.92454 23.2051 5.83803 23.2434 5.73751L23.5366 4.9541C23.6327 4.69819 23.7824 4.4658 23.9756 4.27252C24.1689 4.07925 24.4013 3.92956 24.6572 3.83351L25.4406 3.54026C25.5412 3.502 25.6277 3.43409 25.6887 3.34554C25.7498 3.25699 25.7824 3.15198 25.7824 3.04443C25.7824 2.93688 25.7498 2.83187 25.6887 2.74332C25.6277 2.65477 25.5412 2.58686 25.4406 2.5486L24.6572 2.25535C24.4011 2.15943 24.1686 2.0097 23.9753 1.81627C23.782 1.62284 23.6324 1.39021 23.5366 1.13406L23.2462 0.344973C23.208 0.244458 23.1401 0.157945 23.0515 0.096903C22.963 0.0358613 22.8579 0.00317383 22.7504 0.00317383C22.6428 0.00317383 22.5378 0.0358613 22.4493 0.096903C22.3607 0.157945 22.2928 0.244458 22.2546 0.344973L21.9585 1.12839C21.8627 1.38454 21.7131 1.61718 21.5198 1.81061C21.3265 2.00404 21.094 2.15376 20.8379 2.24968L20.0545 2.54293C19.954 2.58119 19.8674 2.6491 19.8064 2.73765C19.7454 2.8262 19.7127 2.93121 19.7127 3.03876C19.7127 3.14632 19.7454 3.25133 19.8064 3.33988C19.8674 3.42843 19.954 3.49634 20.0545 3.5346L20.0538 3.53743ZM22.749 1.93589C23.0117 2.39583 23.3928 2.77711 23.8526 3.04018C23.3926 3.30306 23.0116 3.68438 22.749 4.14447C22.4858 3.6846 22.1045 3.30337 21.6447 3.04018C22.1045 2.77699 22.4858 2.39576 22.749 1.93589ZM26.0264 6.83472L26.62 7.05714C26.7969 7.12354 26.9575 7.22705 27.0911 7.36072C27.2246 7.49438 27.328 7.6551 27.3942 7.83206L27.6166 8.42564C27.6545 8.52701 27.7225 8.6144 27.8114 8.67609C27.9004 8.73778 28.006 8.77083 28.1142 8.77083C28.2225 8.77083 28.3281 8.73778 28.4171 8.67609C28.506 8.6144 28.5739 8.52701 28.6118 8.42564L28.8336 7.83206C28.8999 7.65505 29.0034 7.49431 29.1371 7.36065C29.2707 7.22698 29.4315 7.12349 29.6085 7.05714L30.2021 6.83472C30.3023 6.79617 30.3885 6.72816 30.4493 6.63964C30.51 6.55113 30.5426 6.44627 30.5426 6.33889C30.5426 6.23151 30.51 6.12665 30.4493 6.03814C30.3885 5.94962 30.3023 5.88161 30.2021 5.84306L29.6085 5.61781C29.4316 5.55192 29.271 5.44874 29.1375 5.31528C29.004 5.18181 28.9009 5.02118 28.835 4.84431L28.6118 4.25001C28.5739 4.14864 28.506 4.06126 28.4171 3.99957C28.3281 3.93788 28.2225 3.90482 28.1142 3.90482C28.006 3.90482 27.9004 3.93788 27.8114 3.99957C27.7225 4.06126 27.6545 4.14864 27.6166 4.25001L27.3942 4.84431C27.328 5.02118 27.2246 5.1818 27.0911 5.31534C26.9575 5.44889 26.7969 5.55227 26.62 5.61851L26.0257 5.84093C25.9252 5.87919 25.8387 5.9471 25.7777 6.03565C25.7166 6.1242 25.6839 6.22921 25.6839 6.33676C25.6839 6.44431 25.7166 6.54933 25.7777 6.63788C25.8387 6.72643 25.9252 6.79433 26.0257 6.8326L26.0264 6.83472ZM28.1139 5.73751C28.2756 5.97072 28.4778 6.17297 28.711 6.33464C28.4783 6.49662 28.2761 6.69855 28.1139 6.93106C27.9521 6.69841 27.7501 6.49645 27.5175 6.33464C27.7505 6.17295 27.9525 5.97069 28.1139 5.73751ZM29.345 3.53743L29.9386 3.75985C30.1154 3.82601 30.2759 3.92928 30.4095 4.0627C30.543 4.19613 30.6464 4.35661 30.7128 4.53335L30.9352 5.12693C30.9731 5.22831 31.041 5.31569 31.13 5.37738C31.2189 5.43907 31.3246 5.47213 31.4328 5.47213C31.541 5.47213 31.6467 5.43907 31.7356 5.37738C31.8245 5.31569 31.8925 5.22831 31.9304 5.12693L32.1528 4.53335C32.2189 4.3565 32.3221 4.19588 32.4556 4.06233C32.589 3.92877 32.7495 3.82539 32.9263 3.75914L33.5206 3.53672C33.6211 3.49846 33.7076 3.43055 33.7687 3.342C33.8297 3.25345 33.8624 3.14844 33.8624 3.04089C33.8624 2.93334 33.8297 2.82833 33.7687 2.73978C33.7076 2.65123 33.6211 2.58332 33.5206 2.54506L32.927 2.32193C32.7503 2.2558 32.5898 2.15254 32.4563 2.0191C32.3229 1.88567 32.2196 1.72517 32.1535 1.54843L31.9311 0.954139C31.8932 0.852763 31.8252 0.765383 31.7363 0.703693C31.6474 0.642002 31.5417 0.608945 31.4335 0.608945C31.3253 0.608945 31.2196 0.642002 31.1307 0.703693C31.0418 0.765383 30.9738 0.852763 30.9359 0.954139L30.7135 1.54843C30.6472 1.72522 30.5438 1.88574 30.4103 2.01917C30.2767 2.15261 30.1161 2.25585 29.9393 2.32193L29.345 2.54506C29.2445 2.58332 29.1579 2.65123 29.0969 2.73978C29.0359 2.82833 29.0032 2.93334 29.0032 3.04089C29.0032 3.14844 29.0359 3.25345 29.0969 3.342C29.1579 3.43055 29.2445 3.49917 29.345 3.53743ZM31.4324 2.44376C31.5946 2.67611 31.7965 2.87801 32.0288 3.04018C31.7965 3.20235 31.5946 3.40426 31.4324 3.6366C31.2706 3.40396 31.0687 3.202 30.836 3.04018C31.0685 2.87818 31.2704 2.67625 31.4324 2.44376ZM32.4496 30.0128C32.3087 30.0128 32.1736 30.0688 32.0739 30.1684C31.9743 30.268 31.9184 30.4032 31.9184 30.5441V32.7498C31.9184 32.7996 31.8986 32.8473 31.8634 32.8825C31.8282 32.9177 31.7804 32.9375 31.7306 32.9375H28.971C28.9212 32.9375 28.8734 32.9177 28.8382 32.8825C28.803 32.8473 28.7833 32.7996 28.7833 32.7498V31.8403C28.7833 31.6994 28.7273 31.5643 28.6277 31.4647C28.528 31.365 28.3929 31.3091 28.252 31.3091C28.1111 31.3091 27.976 31.365 27.8764 31.4647C27.7767 31.5643 27.7208 31.6994 27.7208 31.8403V32.7498C27.7211 33.0813 27.853 33.399 28.0874 33.6334C28.3217 33.8678 28.6395 33.9996 28.971 34H31.7335C32.0649 33.9996 32.3827 33.8678 32.6171 33.6334C32.8515 33.399 32.9833 33.0813 32.9837 32.7498V30.5441C32.9837 30.474 32.9698 30.4047 32.943 30.3401C32.9161 30.2755 32.8767 30.2168 32.8271 30.1674C32.7775 30.118 32.7185 30.079 32.6538 30.0524C32.589 30.0259 32.5196 30.0124 32.4496 30.0128ZM5.71072 31.3083C5.56982 31.3083 5.4347 31.3643 5.33507 31.4639C5.23544 31.5636 5.17947 31.6987 5.17947 31.8396V32.7491C5.17947 32.7988 5.15979 32.8464 5.12474 32.8816C5.08969 32.9168 5.04213 32.9366 4.99247 32.9368H2.22997C2.18031 32.9366 2.13275 32.9168 2.0977 32.8816C2.06265 32.8464 2.04297 32.7988 2.04297 32.7491V30.5441C2.04297 30.4032 1.987 30.268 1.88737 30.1684C1.78774 30.0688 1.65262 30.0128 1.51172 30.0128C1.37082 30.0128 1.2357 30.0688 1.13607 30.1684C1.03644 30.268 0.980469 30.4032 0.980469 30.5441V32.7498C0.980655 33.081 1.11214 33.3985 1.3461 33.6329C1.58006 33.8672 1.8974 33.9993 2.22855 34H4.99105C5.32245 33.9996 5.64015 33.8678 5.87442 33.6334C6.10869 33.399 6.24037 33.0812 6.24055 32.7498V31.8403C6.24074 31.6995 6.18505 31.5644 6.0857 31.4647C5.98636 31.365 5.85149 31.3087 5.71072 31.3083Z" fill="#D1B06B"/>
<path d="M32.8872 13.3556L31.1164 13.0496C30.8577 13.0019 30.5904 13.0437 30.3586 13.1682C30.1268 13.2927 29.9444 13.4925 29.8414 13.7346L29.7458 13.9471L28.4906 10.9863C28.2069 10.3074 27.754 9.71242 27.1752 9.25812C26.5964 8.80381 25.911 8.50526 25.1841 8.39092C22.4757 7.97975 19.7394 7.7794 17 7.79167C14.2606 7.77963 11.5243 7.98022 8.81593 8.39163C8.08914 8.5059 7.40371 8.80434 6.82492 9.25852C6.24614 9.7127 5.79326 10.3075 5.50943 10.9863L4.25001 13.9499L4.16076 13.7417C4.05853 13.4985 3.87656 13.2975 3.64482 13.1716C3.41308 13.0456 3.14536 13.0024 2.88576 13.0489L1.11493 13.3556C0.827549 13.4033 0.566423 13.5514 0.378068 13.7736C0.189712 13.9958 0.0863607 14.2777 0.0864258 14.569V14.9168C0.0866911 15.1972 0.18235 15.4692 0.357679 15.688C0.533008 15.9069 0.777573 16.0595 1.05118 16.121L2.73276 16.5006L1.98759 17.6375C1.34192 18.6198 0.998379 19.7699 0.999467 20.9454V26.9875C0.999467 29.2676 2.58755 30.7417 5.04688 30.7417H28.9531C31.4125 30.7417 33.0005 29.2683 33.0005 26.9875V20.9426C33.0016 19.7671 32.6581 18.617 32.0124 17.6347L31.2673 16.5013L32.9432 16.1231C33.2176 16.0624 33.4631 15.9101 33.6394 15.6912C33.8156 15.4723 33.9121 15.1999 33.9129 14.9189V14.5711C33.9137 14.2798 33.811 13.9977 33.6232 13.7751C33.4353 13.5525 33.1745 13.4038 32.8872 13.3556ZM1.27997 15.0811C1.24268 15.0727 1.20937 15.0519 1.18555 15.022C1.16172 14.9921 1.1488 14.955 1.14893 14.9168V14.569C1.14835 14.5289 1.16242 14.4899 1.18849 14.4594C1.21457 14.4289 1.25086 14.4089 1.29059 14.4033L3.06922 14.0958C3.09417 14.0913 3.1199 14.096 3.14165 14.1091C3.1634 14.1221 3.17969 14.1426 3.18751 14.1667L3.62172 15.1484L3.3568 15.5522L1.27997 15.0811ZM31.938 25.3371H3.40851C3.26761 25.3371 3.13249 25.3931 3.03286 25.4927C2.93323 25.5923 2.87726 25.7274 2.87726 25.8683C2.87726 26.0092 2.93323 26.1444 3.03286 26.244C3.13249 26.3436 3.26761 26.3996 3.40851 26.3996H31.938V26.9875C31.938 28.6719 30.8224 29.6792 28.9531 29.6792H5.04688C3.17759 29.6792 2.06197 28.6726 2.06197 26.9875V20.9426C2.06122 19.974 2.34416 19.0265 2.87584 18.2169L4.55034 15.6627H27.7277C27.8686 15.6627 28.0037 15.6067 28.1034 15.5071C28.203 15.4074 28.259 15.2723 28.259 15.1314C28.259 14.9905 28.203 14.8554 28.1034 14.7558C28.0037 14.6561 27.8686 14.6002 27.7277 14.6002H5.13047L6.48763 11.4042C6.70124 10.8914 7.04271 10.4419 7.47946 10.0987C7.91621 9.75543 8.43365 9.52986 8.98238 9.4435C11.6356 9.03935 14.3162 8.84232 17 8.85417C19.6837 8.84161 22.3644 9.03794 25.0176 9.44138C25.5666 9.52793 26.0842 9.75382 26.521 10.0975C26.9577 10.4411 27.2991 10.891 27.5124 11.4042L29.0651 15.0641C29.0771 15.0934 29.092 15.1214 29.1097 15.1477L31.1242 18.2198C31.6559 19.0293 31.9388 19.9769 31.938 20.9454V25.3371ZM32.8504 14.9168C32.8504 14.9558 32.8369 14.9936 32.8122 15.0237C32.7876 15.0539 32.7533 15.0747 32.7151 15.0825L30.6453 15.55L30.3804 15.1463L30.8175 14.1546C30.8273 14.1332 30.8439 14.1155 30.8648 14.1045C30.8857 14.0935 30.9097 14.0897 30.9329 14.0937L32.708 14.4011C32.7477 14.4068 32.784 14.4268 32.8101 14.4573C32.8362 14.4878 32.8503 14.5267 32.8497 14.5669L32.8504 14.9168Z" fill="#D1B06B"/>
</svg>
