<svg width="34" height="22" viewBox="0 0 34 22" fill="none" xmlns="http://www.w3.org/2000/svg">
<path d="M28.7082 4.89363L25.6678 4.88994C23.6798 2.06724 20.4664 0.392883 17 0.392883C13.5334 0.392883 10.3189 2.06847 8.32961 4.89347H5.29177C2.3739 4.89355 0 7.26728 0 10.1851V11.8178C0 14.7339 2.3739 17.1063 5.29177 17.1063H8.32944C10.3173 19.9313 13.5319 21.607 17 21.607C20.463 21.607 23.6747 19.9344 25.6643 17.1146L28.7082 17.1063C31.6262 17.1063 34 14.7326 34 11.8149V10.1822C34 7.26605 31.6261 4.89363 28.7082 4.89363ZM13.698 9.03042L12.0319 13.6379C12.0021 13.7199 11.9219 13.7753 11.8365 13.7732L11.2166 13.7659C11.1741 13.7654 11.1327 13.7516 11.0983 13.7266C11.0639 13.7015 11.0382 13.6664 11.0246 13.626L10.0461 10.7077L9.06287 13.6268C9.04932 13.667 9.02363 13.702 8.98933 13.727C8.95503 13.752 8.91382 13.7658 8.87137 13.7664L8.25248 13.7752H8.24961C8.20766 13.7752 8.16671 13.7623 8.13229 13.7383C8.09787 13.7144 8.07164 13.6804 8.05712 13.641L6.35668 9.0337C6.34735 9.00843 6.34309 8.98156 6.34415 8.95465C6.3452 8.92773 6.35155 8.90128 6.36283 8.87682C6.3741 8.85235 6.39009 8.83035 6.40987 8.81206C6.42965 8.79378 6.45284 8.77957 6.47811 8.77024L7.09396 8.54297C7.14501 8.52416 7.20144 8.52639 7.25085 8.54918C7.30025 8.57197 7.33858 8.61344 7.35742 8.66448L8.53464 11.8541L9.54195 8.86337C9.55567 8.82268 9.5818 8.78732 9.61667 8.76227C9.65154 8.73722 9.69339 8.72374 9.73632 8.72372H9.73648L10.3587 8.72421C10.4017 8.72427 10.4436 8.7378 10.4784 8.76289C10.5133 8.78799 10.5394 8.82339 10.5531 8.8641L11.5494 11.8357L12.6951 8.66776C12.7042 8.64243 12.7183 8.61914 12.7364 8.59924C12.7546 8.57934 12.7765 8.56321 12.8009 8.55178C12.8253 8.54035 12.8517 8.53384 12.8786 8.53263C12.9055 8.53141 12.9324 8.53551 12.9577 8.54469L13.5749 8.76794C13.6003 8.77709 13.6235 8.79114 13.6434 8.80929C13.6633 8.82743 13.6794 8.84931 13.6908 8.87368C13.7023 8.89806 13.7088 8.92445 13.71 8.95134C13.7113 8.97823 13.7072 9.0051 13.698 9.03042ZM15.1915 13.3869C15.1915 13.4413 15.1699 13.4935 15.1315 13.532C15.093 13.5704 15.0408 13.592 14.9864 13.592H14.33C14.2756 13.592 14.2235 13.5704 14.185 13.532C14.1465 13.4935 14.1249 13.4413 14.1249 13.3869V10.4204C14.1249 10.366 14.1465 10.3138 14.185 10.2754C14.2235 10.2369 14.2756 10.2153 14.33 10.2153H14.9864C15.0408 10.2153 15.093 10.2369 15.1315 10.2754C15.1699 10.3138 15.1915 10.366 15.1915 10.4204V13.3869ZM14.6582 9.67318C14.319 9.67318 14.043 9.39717 14.043 9.05782C14.043 8.71847 14.319 8.44246 14.6582 8.44246C14.9977 8.44246 15.2736 8.71847 15.2736 9.05782C15.2736 9.39717 14.9977 9.67318 14.6582 9.67318ZM32.6872 11.815C32.6872 14.0088 30.9023 15.7936 28.7082 15.7936L19.2685 15.8024C18.484 15.8024 17.7449 15.8024 17.0899 15.7992C17.4967 15.3745 17.793 14.8374 17.793 14.1599V10.1034C17.793 7.95263 19.5436 6.20279 21.6953 6.20279L28.7082 6.20648C30.9023 6.20648 32.6872 7.98996 32.6872 10.1823V11.815Z" fill="#D1B06B"/>
</svg>
