<svg width="34" height="34" viewBox="0 0 34 34" fill="none" xmlns="http://www.w3.org/2000/svg">
<path d="M2.125 8.4927C2.1691 8.49758 2.21344 8.50002 2.25781 8.5H23.2422C23.2866 8.50002 23.3309 8.49758 23.375 8.4927V9.03125H24.4375V2.25781C24.4371 1.9409 24.3111 1.63708 24.087 1.41299C23.8629 1.1889 23.5591 1.06285 23.2422 1.0625H2.25781C1.9409 1.06285 1.63708 1.1889 1.41299 1.41299C1.1889 1.63708 1.06285 1.9409 1.0625 2.25781V10.625H2.125V8.4927ZM2.125 2.25781C2.12504 2.2226 2.13904 2.18884 2.16394 2.16394C2.18884 2.13904 2.2226 2.12504 2.25781 2.125H23.2422C23.2774 2.12504 23.3112 2.13904 23.3361 2.16394C23.361 2.18884 23.375 2.2226 23.375 2.25781V7.30469C23.375 7.3399 23.361 7.37366 23.3361 7.39856C23.3112 7.42346 23.2774 7.43746 23.2422 7.4375H2.25781C2.2226 7.43746 2.18884 7.42346 2.16394 7.39856C2.13904 7.37366 2.12504 7.3399 2.125 7.30469V2.25781ZM20.5425 22.5252C21.3569 20.6597 21.4748 18.5638 20.8748 16.6187C20.2748 14.6736 18.9968 13.0084 17.2731 11.9257C15.5493 10.8431 13.4943 10.4149 11.4816 10.719C9.46896 11.0231 7.63222 12.0394 6.30532 13.583C4.97842 15.1266 4.24947 17.0951 4.25098 19.1306C4.2525 21.1662 4.98437 23.1336 6.31356 24.6752C7.64275 26.2169 9.481 27.2304 11.4941 27.5315C13.5073 27.8327 15.5616 27.4014 17.2838 26.3162L16.7163 25.4179C15.2115 26.3648 13.4169 26.7404 11.6586 26.4765C9.90036 26.2127 8.29512 25.3267 7.13459 23.9798C5.97407 22.6328 5.33528 20.9142 5.33433 19.1362C5.33337 17.3582 5.97029 15.6389 7.12937 14.2907C8.28844 12.9425 9.89273 12.0548 11.6507 11.789C13.4087 11.5232 15.2037 11.897 16.7095 12.8423C18.2154 13.7876 19.3321 15.2418 19.8568 16.9405C20.3815 18.6393 20.2793 20.47 19.5689 22.0998L20.5425 22.5252Z" fill="#D1B06B"/>
<path d="M12.75 6.90625C13.1703 6.90625 13.5811 6.78162 13.9306 6.54812C14.28 6.31463 14.5524 5.98275 14.7132 5.59445C14.8741 5.20616 14.9162 4.77889 14.8342 4.36668C14.7522 3.95447 14.5498 3.57584 14.2526 3.27865C13.9554 2.98146 13.5768 2.77908 13.1646 2.69708C12.7524 2.61509 12.3251 2.65717 11.9368 2.81801C11.5485 2.97884 11.2166 3.25121 10.9831 3.60066C10.7496 3.95012 10.625 4.36097 10.625 4.78125C10.6256 5.34464 10.8497 5.88478 11.2481 6.28315C11.6465 6.68153 12.1866 6.90562 12.75 6.90625ZM12.75 3.71875C12.9601 3.71875 13.1656 3.78107 13.3403 3.89781C13.515 4.01456 13.6512 4.1805 13.7316 4.37465C13.812 4.5688 13.8331 4.78243 13.7921 4.98853C13.7511 5.19464 13.6499 5.38396 13.5013 5.53255C13.3527 5.68114 13.1634 5.78234 12.9573 5.82334C12.7512 5.86433 12.5375 5.84329 12.3434 5.76287C12.1493 5.68246 11.9833 5.54627 11.8666 5.37154C11.7498 5.19682 11.6875 4.99139 11.6875 4.78125C11.6878 4.49956 11.7999 4.22949 11.999 4.0303C12.1982 3.83111 12.4683 3.71907 12.75 3.71875ZM9.03125 5.3125H10.0938V6.375H9.03125V5.3125ZM9.03125 3.1875H10.0938V4.25H9.03125V3.1875ZM15.4062 5.3125H16.4688V6.375H15.4062V5.3125ZM15.4062 3.1875H16.4688V4.25H15.4062V3.1875ZM17.5312 6.90625H22.3125C22.4534 6.90625 22.5885 6.85028 22.6882 6.75065C22.7878 6.65102 22.8438 6.5159 22.8438 6.375V3.1875C22.8438 3.0466 22.7878 2.91148 22.6882 2.81185C22.5885 2.71222 22.4534 2.65625 22.3125 2.65625H17.5312C17.3904 2.65625 17.2552 2.71222 17.1556 2.81185C17.056 2.91148 17 3.0466 17 3.1875V6.375C17 6.5159 17.056 6.65102 17.1556 6.75065C17.2552 6.85028 17.3904 6.90625 17.5312 6.90625ZM18.0625 3.71875H21.7812V5.84375H18.0625V3.71875ZM5.04688 6.375H6.64062C7.13359 6.37446 7.60622 6.17838 7.9548 5.8298C8.30338 5.48122 8.49945 5.0086 8.5 4.51563V3.71875C8.5 3.57785 8.44403 3.44273 8.3444 3.3431C8.24477 3.24347 8.10965 3.1875 7.96875 3.1875H3.71875C3.57785 3.1875 3.44273 3.24347 3.3431 3.3431C3.24347 3.44273 3.1875 3.57785 3.1875 3.71875V4.51563C3.18804 5.0086 3.38412 5.48122 3.7327 5.8298C4.08128 6.17838 4.55391 6.37446 5.04688 6.375ZM4.25 4.25H7.4375V4.51563C7.43727 4.7269 7.35324 4.92946 7.20385 5.07885C7.05446 5.22824 6.8519 5.31227 6.64062 5.3125H5.04688C4.8356 5.31227 4.63305 5.22824 4.48365 5.07885C4.33426 4.92946 4.25023 4.7269 4.25 4.51563V4.25ZM19.6562 9.5625H22.3125V10.625H19.6562V9.5625ZM14.875 20.1875H15.9375V21.25H14.875V20.1875ZM13.2812 22.3125H14.3438V23.375H13.2812V22.3125ZM10.0938 21.7812H11.1562V22.8438H10.0938V21.7812Z" fill="#D1B06B"/>
<path d="M12.75 12.75C11.4891 12.75 10.2566 13.1239 9.20824 13.8244C8.15988 14.5249 7.34278 15.5205 6.86027 16.6854C6.37776 17.8503 6.25152 19.1321 6.4975 20.3687C6.74348 21.6053 7.35064 22.7412 8.2422 23.6328C9.13376 24.5244 10.2697 25.1315 11.5063 25.3775C12.7429 25.6235 14.0247 25.4972 15.1896 25.0147C16.3545 24.5322 17.3501 23.7151 18.0506 22.6668C18.7511 21.6184 19.125 20.3859 19.125 19.125C19.1231 17.4348 18.4508 15.8144 17.2557 14.6193C16.0606 13.4242 14.4402 12.7519 12.75 12.75ZM12.75 13.8125C13.8939 13.8139 15.0069 14.1839 15.9241 14.8675C16.8412 15.5511 17.5137 16.5121 17.8418 17.6079C17.4419 17.5275 17.0345 17.4904 16.6266 17.4972C14.7601 17.5161 13.7972 18.2923 12.9477 18.977C12.1294 19.6367 11.4226 20.2064 9.92475 20.2216C8.73355 20.2339 8.03091 19.873 7.44833 19.4657C7.44116 19.353 7.43755 19.2395 7.4375 19.125C7.43908 17.7165 7.9993 16.3662 8.99525 15.3702C9.99119 14.3743 11.3415 13.8141 12.75 13.8125ZM12.75 24.4375C11.643 24.4362 10.5639 24.0897 9.66305 23.4462C8.76222 22.8028 8.08447 21.8944 7.72418 20.8476C8.29461 21.1076 8.97985 21.2845 9.86691 21.2845C9.88962 21.2845 9.9126 21.2843 9.93551 21.2841C11.8022 21.2651 12.7651 20.489 13.6145 19.8042C14.4329 19.1445 15.1396 18.5748 16.6374 18.5596C17.1164 18.5474 17.594 18.6159 18.0502 18.7623C18.0584 18.8822 18.0625 19.0031 18.0625 19.125C18.0609 20.5335 17.5007 21.8838 16.5048 22.8798C15.5088 23.8757 14.1585 24.4359 12.75 24.4375Z" fill="#D1B06B"/>
<path d="M31.0781 23.375H29.7427C29.7476 23.3309 29.75 23.2865 29.75 23.2422V14.7422C29.7492 14.1422 29.535 13.562 29.1457 13.1054C28.7564 12.6489 28.2174 12.3457 27.625 12.2502V11.289C27.6246 10.9721 27.4986 10.6683 27.2745 10.4442C27.0504 10.2201 26.7466 10.0941 26.4297 10.0937H24.5703C24.2534 10.0941 23.9496 10.2201 23.7255 10.4442C23.5014 10.6683 23.3754 10.9721 23.375 11.289V12.6246L22.6489 14.0766C22.4282 14.5194 22.3131 15.0073 22.3125 15.5021V23.2422C22.3125 23.2865 22.3149 23.3309 22.3198 23.375H19.9219C19.4289 23.3755 18.9563 23.5716 18.6077 23.9202C18.2591 24.2688 18.063 24.7414 18.0625 25.2344V26.8281C18.0624 27.0756 18.1118 27.3206 18.2078 27.5487C18.3039 27.7768 18.4447 27.9834 18.6218 28.1562C18.4447 28.3291 18.3039 28.5356 18.2078 28.7637C18.1118 28.9918 18.0624 29.2368 18.0625 29.4844V31.0781C18.0622 31.3538 18.1235 31.6261 18.2421 31.875H9.5625V29.2187C9.5625 29.0778 9.50653 28.9427 9.4069 28.8431C9.30727 28.7434 9.17215 28.6875 9.03125 28.6875H3.71875C3.57785 28.6875 3.44273 28.7434 3.3431 28.8431C3.24347 28.9427 3.1875 29.0778 3.1875 29.2187V31.875H2.25781C2.2226 31.8749 2.18884 31.8609 2.16394 31.836C2.13904 31.8111 2.12504 31.7774 2.125 31.7422V11.6875H1.0625V31.7422C1.06285 32.0591 1.1889 32.3629 1.41299 32.587C1.63708 32.8111 1.9409 32.9371 2.25781 32.9375H28.6875V31.875H19.9219C19.7106 31.8747 19.508 31.7907 19.3587 31.6413C19.2093 31.4919 19.1252 31.2894 19.125 31.0781V29.4844C19.1252 29.2731 19.2093 29.0705 19.3587 28.9211C19.508 28.7717 19.7106 28.6877 19.9219 28.6875H31.0781C31.2894 28.6877 31.492 28.7717 31.6413 28.9211C31.7907 29.0705 31.8748 29.2731 31.875 29.4844V31.0781C31.8748 31.2894 31.7907 31.4919 31.6413 31.6413C31.492 31.7907 31.2894 31.8747 31.0781 31.875H29.75V32.9375H31.0781C31.5711 32.9369 32.0437 32.7409 32.3923 32.3923C32.7409 32.0437 32.937 31.5711 32.9375 31.0781V29.4844C32.9376 29.2368 32.8882 28.9918 32.7922 28.7637C32.6961 28.5356 32.5553 28.3291 32.3782 28.1562C32.5553 27.9834 32.6961 27.7768 32.7922 27.5487C32.8882 27.3206 32.9376 27.0756 32.9375 26.8281V25.2344C32.937 24.7414 32.7409 24.2688 32.3923 23.9202C32.0437 23.5716 31.5711 23.3755 31.0781 23.375ZM4.25 31.875V29.75H5.84375V30.8125H6.90625V29.75H8.5V31.875H4.25ZM23.375 19.125H28.6875V21.25H23.375V19.125ZM28.6875 14.7422V15.9375H28.4219C28.2106 15.9372 28.008 15.8532 27.8587 15.7038C27.7093 15.5544 27.6252 15.3519 27.625 15.1406V13.3364C27.9307 13.4235 28.1998 13.6078 28.3915 13.8615C28.5832 14.1151 28.6871 14.4242 28.6875 14.7422ZM24.4375 11.289C24.4375 11.2538 24.4515 11.2201 24.4764 11.1952C24.5013 11.1703 24.5351 11.1563 24.5703 11.1562H26.4297C26.4649 11.1563 26.4987 11.1703 26.5236 11.1952C26.5485 11.2201 26.5625 11.2538 26.5625 11.289V12.2187H24.4375V11.289ZM23.5993 14.5517L24.2346 13.2812H26.5625V15.1406C26.563 15.6336 26.7591 16.1062 27.1077 16.4548C27.4563 16.8034 27.9289 16.9994 28.4219 17H28.6875V18.0625H23.375V15.5021C23.3754 15.1722 23.4522 14.8469 23.5993 14.5517ZM23.375 23.2422V22.3125H28.6875V23.2422C28.6875 23.2774 28.6735 23.3111 28.6486 23.336C28.6237 23.3609 28.5899 23.3749 28.5547 23.375H23.5078C23.4726 23.3749 23.4388 23.3609 23.4139 23.336C23.389 23.3111 23.375 23.2774 23.375 23.2422ZM19.9219 27.625C19.7106 27.6247 19.508 27.5407 19.3587 27.3913C19.2093 27.2419 19.1252 27.0394 19.125 26.8281V25.2344C19.1252 25.0231 19.2093 24.8205 19.3587 24.6711C19.508 24.5217 19.7106 24.4377 19.9219 24.4375H31.0781C31.2894 24.4377 31.492 24.5217 31.6413 24.6711C31.7907 24.8205 31.8748 25.0231 31.875 25.2344V26.8281C31.8748 27.0394 31.7907 27.2419 31.6413 27.3913C31.492 27.5407 31.2894 27.6247 31.0781 27.625H19.9219ZM25.7763 3.91921L26.8418 4.50192L27.4245 5.56741C27.4703 5.65106 27.5377 5.72086 27.6197 5.76948C27.7017 5.81811 27.7953 5.84376 27.8906 5.84376C27.986 5.84376 28.0796 5.81811 28.1616 5.76948C28.2436 5.72086 28.311 5.65106 28.3567 5.56741L28.9394 4.50192L30.0049 3.91921C30.0886 3.87346 30.1584 3.80605 30.207 3.72404C30.2556 3.64203 30.2813 3.54844 30.2813 3.4531C30.2813 3.35776 30.2556 3.26418 30.207 3.18216C30.1584 3.10015 30.0886 3.03274 30.0049 2.987L28.9394 2.40428L28.3567 1.33879C28.311 1.25514 28.2436 1.18534 28.1616 1.13672C28.0796 1.0881 27.986 1.06244 27.8906 1.06244C27.7953 1.06244 27.7017 1.0881 27.6197 1.13672C27.5377 1.18534 27.4703 1.25514 27.4245 1.33879L26.8418 2.40428L25.7763 2.987C25.6927 3.03274 25.6229 3.10015 25.5742 3.18216C25.5256 3.26418 25.5 3.35776 25.5 3.4531C25.5 3.54844 25.5256 3.64203 25.5742 3.72404C25.6229 3.80605 25.6927 3.87346 25.7763 3.91921ZM27.4882 3.26185C27.5773 3.2131 27.6506 3.13981 27.6994 3.05068L27.8906 2.70085L28.0819 3.05061C28.1306 3.13975 28.2039 3.21303 28.293 3.26178L28.6429 3.4531L28.2932 3.64435C28.204 3.6931 28.1308 3.76639 28.082 3.85552L27.8906 4.20535L27.6994 3.85552C27.6506 3.76639 27.5773 3.6931 27.4882 3.64435L27.1383 3.4531L27.4882 3.26185ZM30.0808 6.65129L29.4981 7.71678L28.4326 8.2995C28.3489 8.34524 28.2791 8.41265 28.2305 8.49466C28.1819 8.57668 28.1562 8.67026 28.1562 8.7656C28.1562 8.86094 28.1819 8.95453 28.2305 9.03654C28.2791 9.11855 28.3489 9.18596 28.4326 9.23171L29.4981 9.81442L30.0808 10.8799C30.1265 10.9636 30.1939 11.0334 30.2759 11.082C30.3579 11.1306 30.4515 11.1563 30.5469 11.1563C30.6422 11.1563 30.7358 11.1306 30.8178 11.082C30.8998 11.0334 30.9672 10.9636 31.013 10.8799L31.5957 9.81442L32.6612 9.23171C32.7448 9.18596 32.8146 9.11855 32.8633 9.03654C32.9119 8.95453 32.9375 8.86094 32.9375 8.7656C32.9375 8.67026 32.9119 8.57668 32.8633 8.49466C32.8146 8.41265 32.7448 8.34524 32.6612 8.2995L31.5957 7.71678L31.013 6.65129C30.9672 6.56764 30.8998 6.49784 30.8178 6.44922C30.7358 6.4006 30.6422 6.37494 30.5469 6.37494C30.4515 6.37494 30.3579 6.4006 30.2759 6.44922C30.1939 6.49784 30.1265 6.56764 30.0808 6.65129ZM30.3556 8.36318L30.5469 8.01335L30.7381 8.36318C30.7869 8.45231 30.8602 8.5256 30.9493 8.57435L31.2992 8.7656L30.9494 8.95685C30.8602 9.0056 30.7869 9.07889 30.7382 9.16802L30.5469 9.51785L30.3556 9.16809C30.3069 9.07895 30.2336 9.00567 30.1445 8.95692L29.7946 8.7656L30.1443 8.57435C30.2335 8.5256 30.3068 8.45231 30.3556 8.36318Z" fill="#D1B06B"/>
</svg>
