<svg width="24" height="24" viewBox="0 0 24 24" fill="none" xmlns="http://www.w3.org/2000/svg">
<path d="M20 19.293V16.5C20 16.3674 20.0527 16.2402 20.1464 16.1464C20.2402 16.0527 20.3674 16 20.5 16C20.6326 16 20.7598 16.0527 20.8536 16.1464C20.9473 16.2402 21 16.3674 21 16.5V20.5C21 20.6326 20.9473 20.7598 20.8536 20.8536C20.7598 20.9473 20.6326 21 20.5 21H16.5C16.3674 21 16.2402 20.9473 16.1464 20.8536C16.0527 20.7598 16 20.6326 16 20.5C16 20.3674 16.0527 20.2402 16.1464 20.1464C16.2402 20.0527 16.3674 20 16.5 20H19.293L16.146 16.854C16.0521 16.7601 15.9994 16.6328 15.9994 16.5C15.9994 16.3672 16.0521 16.2399 16.146 16.146C16.2399 16.0521 16.3672 15.9994 16.5 15.9994C16.6328 15.9994 16.7601 16.0521 16.854 16.146L20 19.293ZM4 4.707V7.5C4 7.63261 3.94732 7.75979 3.85355 7.85355C3.75979 7.94732 3.63261 8 3.5 8C3.36739 8 3.24021 7.94732 3.14645 7.85355C3.05268 7.75979 3 7.63261 3 7.5V3.5C3 3.36739 3.05268 3.24021 3.14645 3.14645C3.24021 3.05268 3.36739 3 3.5 3H7.5C7.63261 3 7.75979 3.05268 7.85355 3.14645C7.94732 3.24021 8 3.36739 8 3.5C8 3.63261 7.94732 3.75979 7.85355 3.85355C7.75979 3.94732 7.63261 4 7.5 4H4.707L7.854 7.146C7.94789 7.23989 8.00063 7.36722 8.00063 7.5C8.00063 7.63278 7.94789 7.76011 7.854 7.854C7.76011 7.94789 7.63278 8.00063 7.5 8.00063C7.36722 8.00063 7.23989 7.94789 7.146 7.854L4 4.707ZM4.707 20H7.5C7.63261 20 7.75979 20.0527 7.85355 20.1464C7.94732 20.2402 8 20.3674 8 20.5C8 20.6326 7.94732 20.7598 7.85355 20.8536C7.75979 20.9473 7.63261 21 7.5 21H3.5C3.36739 21 3.24021 20.9473 3.14645 20.8536C3.05268 20.7598 3 20.6326 3 20.5V16.5C3 16.3674 3.05268 16.2402 3.14645 16.1464C3.24021 16.0527 3.36739 16 3.5 16C3.63261 16 3.75979 16.0527 3.85355 16.1464C3.94732 16.2402 4 16.3674 4 16.5V19.293L7.146 16.146C7.23989 16.0521 7.36722 15.9994 7.5 15.9994C7.63278 15.9994 7.76011 16.0521 7.854 16.146C7.94789 16.2399 8.00063 16.3672 8.00063 16.5C8.00063 16.6328 7.94789 16.7601 7.854 16.854L4.707 20ZM19.293 4H16.5C16.3674 4 16.2402 3.94732 16.1464 3.85355C16.0527 3.75979 16 3.63261 16 3.5C16 3.36739 16.0527 3.24021 16.1464 3.14645C16.2402 3.05268 16.3674 3 16.5 3H20.5C20.6326 3 20.7598 3.05268 20.8536 3.14645C20.9473 3.24021 21 3.36739 21 3.5V7.531C21 7.66361 20.9473 7.79079 20.8536 7.88455C20.7598 7.97832 20.6326 8.031 20.5 8.031C20.3674 8.031 20.2402 7.97832 20.1464 7.88455C20.0527 7.79079 20 7.66361 20 7.531V4.707L16.854 7.854C16.7601 7.94789 16.6328 8.00063 16.5 8.00063C16.3672 8.00063 16.2399 7.94789 16.146 7.854C16.0521 7.76011 15.9994 7.63278 15.9994 7.5C15.9994 7.36722 16.0521 7.23989 16.146 7.146L19.293 4ZM8 10.495C8 9.833 8.26257 9.19802 8.73011 8.72935C9.19765 8.26068 9.832 7.99659 10.494 7.995L13.494 7.987C13.8228 7.98634 14.1484 8.05052 14.4524 8.17585C14.7563 8.30118 15.0326 8.4852 15.2654 8.7174C15.4981 8.9496 15.6828 9.22541 15.8089 9.52906C15.9349 9.83271 15.9999 10.1582 16 10.487V13.5C16 14.163 15.7366 14.7989 15.2678 15.2678C14.7989 15.7366 14.163 16 13.5 16H10.5C9.83696 16 9.20107 15.7366 8.73223 15.2678C8.26339 14.7989 8 14.163 8 13.5V10.495ZM9 10.495V13.5C9 13.8978 9.15804 14.2794 9.43934 14.5607C9.72064 14.842 10.1022 15 10.5 15H13.5C13.8978 15 14.2794 14.842 14.5607 14.5607C14.842 14.2794 15 13.8978 15 13.5V10.487C15 10.0892 14.842 9.70764 14.5607 9.42634C14.2794 9.14504 13.8978 8.987 13.5 8.987L10.496 8.995C10.0989 8.99606 9.71836 9.15456 9.43792 9.43575C9.15748 9.71694 9 10.0979 9 10.495Z" fill="#D1B06B"/>
</svg>
