<svg width="24" height="24" viewBox="0 0 24 24" fill="none" xmlns="http://www.w3.org/2000/svg">
<rect width="24" height="24" fill="#1E1E1E"/>
<g id="Slide 16:9 - 7" clip-path="url(#clip0_0_1)">
<rect width="1920" height="6841" transform="translate(-500 -2683)" fill="black"/>
<rect id="Rectangle 3878" x="-500" y="-774" width="1920" height="987" fill="#0E0E0E"/>
<g id="Group 52">
<g id="Group 51">
<g id="Group 48">
<rect id="Rectangle 3875" x="-260" y="-468" width="460" height="581" fill="#1E1E1E"/>
<g id="Group 47">
<g id="Frame 638">
<g id="Frame 636">
<g id="Frame">
<g id="Group">
<g id="Layer 48">
<path id="Vector" d="M11.0138 20.625H10.3612C10.0005 20.624 9.65486 20.4803 9.39979 20.2252C9.14472 19.9701 9.00099 19.6245 9 19.2637V15.2363C9.00099 14.8755 9.14472 14.5299 9.39979 14.2748C9.65486 14.0197 10.0005 13.876 10.3612 13.875H11.0138C11.1238 13.8758 11.2333 13.8896 11.34 13.9163C11.6358 13.9879 11.8988 14.1571 12.0866 14.3966C12.2744 14.6361 12.376 14.9319 12.375 15.2363V19.2637C12.374 19.6245 12.2303 19.9701 11.9752 20.2252C11.7201 20.4803 11.3745 20.624 11.0138 20.625ZM10.3612 14.625C10.281 14.625 10.2015 14.6408 10.1273 14.6715C10.0532 14.7022 9.98579 14.7473 9.92903 14.804C9.87227 14.8608 9.82725 14.9282 9.79653 15.0023C9.76581 15.0765 9.75 15.156 9.75 15.2363V19.2637C9.75 19.4259 9.8144 19.5813 9.92903 19.696C10.0437 19.8106 10.1991 19.875 10.3612 19.875H11.0138C11.094 19.875 11.1735 19.8592 11.2477 19.8285C11.3218 19.7978 11.3892 19.7527 11.446 19.696C11.5027 19.6392 11.5478 19.5718 11.5785 19.4977C11.6092 19.4235 11.625 19.344 11.625 19.2637V15.2363C11.6248 15.0998 11.5789 14.9673 11.4946 14.8599C11.4103 14.7525 11.2925 14.6764 11.16 14.6437C11.1114 14.6385 11.0624 14.6385 11.0138 14.6437L10.3612 14.625ZM21.5138 20.625H20.8612C20.5005 20.624 20.1549 20.4803 19.8998 20.2252C19.6447 19.9701 19.501 19.6245 19.5 19.2637V15.2363C19.499 14.9319 19.6006 14.6361 19.7884 14.3966C19.9762 14.1571 20.2392 13.9879 20.535 13.9163C20.6417 13.8896 20.7512 13.8758 20.8612 13.875H21.5138C21.8745 13.876 22.2201 14.0197 22.4752 14.2748C22.7303 14.5299 22.874 14.8755 22.875 15.2363V19.2637C22.874 19.6245 22.7303 19.9701 22.4752 20.2252C22.2201 20.4803 21.8745 20.624 21.5138 20.625ZM20.8612 14.625C20.8126 14.6197 20.7636 14.6197 20.715 14.625C20.5793 14.6584 20.4591 14.7373 20.3745 14.8485C20.2899 14.9597 20.246 15.0966 20.25 15.2363V19.2637C20.25 19.344 20.2658 19.4235 20.2965 19.4977C20.3272 19.5718 20.3723 19.6392 20.429 19.696C20.4858 19.7527 20.5532 19.7978 20.6273 19.8285C20.7015 19.8592 20.781 19.875 20.8612 19.875H21.5138C21.6759 19.875 21.8313 19.8106 21.946 19.696C22.0606 19.5813 22.125 19.4259 22.125 19.2637V15.2363C22.125 15.156 22.1092 15.0765 22.0785 15.0023C22.0478 14.9282 22.0027 14.8608 21.946 14.804C21.8892 14.7473 21.8218 14.7022 21.7477 14.6715C21.6735 14.6408 21.594 14.625 21.5138 14.625H20.8612ZM8.25 18.75H1.125V14.25H8.25V18.75ZM1.875 18H7.5V15H1.875V18Z" fill="#D1B06B"/>
<path id="Vector_2" d="M7.5 18H8.25V20.625H7.5V18ZM1.125 18H1.875V20.625H1.125V18ZM19.125 20.625H12.75C12.4516 20.625 12.1655 20.5065 11.9545 20.2955C11.7435 20.0845 11.625 19.7984 11.625 19.5V17.25H20.25V19.5C20.25 19.7984 20.1315 20.0845 19.9205 20.2955C19.7095 20.5065 19.4234 20.625 19.125 20.625ZM12.375 18V19.5C12.375 19.5995 12.4145 19.6948 12.4848 19.7652C12.5552 19.8355 12.6505 19.875 12.75 19.875H19.125C19.2245 19.875 19.3198 19.8355 19.3902 19.7652C19.4605 19.6948 19.5 19.5995 19.5 19.5V18H12.375Z" fill="#D1B06B"/>
<path id="Vector_3" d="M20.25 18H11.625V16.875C11.625 16.3777 11.8225 15.9008 12.1742 15.5492C12.5258 15.1975 13.0027 15 13.5 15H18.375C18.8723 15 19.3492 15.1975 19.7008 15.5492C20.0525 15.9008 20.25 16.3777 20.25 16.875V18ZM12.375 17.25H19.5V16.875C19.5 16.5766 19.3815 16.2905 19.1705 16.0795C18.9595 15.8685 18.6734 15.75 18.375 15.75H13.5C13.2016 15.75 12.9155 15.8685 12.7045 16.0795C12.4935 16.2905 12.375 16.5766 12.375 16.875V17.25Z" fill="#D1B06B"/>
<path id="Vector_4" d="M20.2502 16.875H19.5002C19.5002 16.5766 19.3817 16.2905 19.1707 16.0795C18.9597 15.8685 18.6736 15.75 18.3752 15.75H13.5002C13.2018 15.75 12.9157 15.8685 12.7047 16.0795C12.4937 16.2905 12.3752 16.5766 12.3752 16.875H11.6252V15.2363C11.625 15.0998 11.5791 14.9673 11.4948 14.8599C11.4105 14.7525 11.2928 14.6764 11.1602 14.6437L10.8752 14.5762V11.625C10.8752 10.9288 11.1518 10.2611 11.6441 9.76884C12.1363 9.27656 12.804 9 13.5002 9H18.3752C19.0714 9 19.7391 9.27656 20.2314 9.76884C20.7237 10.2611 21.0002 10.9288 21.0002 11.625V14.5762L20.7152 14.6437C20.5827 14.6764 20.4649 14.7525 20.3806 14.8599C20.2963 14.9673 20.2504 15.0998 20.2502 15.2363V16.875ZM13.5002 15H18.3752C18.7809 15 19.1757 15.1316 19.5002 15.375V15.2363C19.4992 14.9839 19.5689 14.7362 19.7014 14.5215C19.834 14.3067 20.0241 14.1334 20.2502 14.0212V11.625C20.2502 11.1277 20.0527 10.6508 19.701 10.2992C19.3494 9.94754 18.8725 9.75 18.3752 9.75H13.5002C13.0029 9.75 12.526 9.94754 12.1744 10.2992C11.8228 10.6508 11.6252 11.1277 11.6252 11.625V14.0212C11.8513 14.1334 12.0414 14.3067 12.174 14.5215C12.3066 14.7362 12.3763 14.9839 12.3752 15.2363V15.375C12.6998 15.1316 13.0945 15 13.5002 15ZM3.75021 16.125H5.62521V16.875H3.75021V16.125ZM5.90646 15H3.46896L2.50146 11.625H6.87396L5.90646 15ZM4.03146 14.25H5.34396L5.87646 12.375H3.49896L4.03146 14.25Z" fill="#D1B06B"/>
<path id="Vector_5" d="M4.6875 12.375C4.59175 12.3743 4.4963 12.3643 4.4025 12.345C3.69962 12.2254 3.06125 11.8622 2.59916 11.3192C2.13708 10.7762 1.88073 10.088 1.875 9.37504V9.00004H2.25C2.94778 8.99641 3.62467 9.23797 4.1625 9.68254L4.30125 9.79129V9.96754C4.29893 10.424 4.43346 10.8708 4.6875 11.25C4.94592 10.8734 5.08567 10.428 5.08875 9.97129V9.79504L5.2275 9.68629C5.76085 9.24367 6.43191 9.00097 7.125 9.00004H7.5V9.37504C7.50269 10.1006 7.24428 10.8029 6.77197 11.3537C6.29966 11.9045 5.64498 12.267 4.9275 12.375C4.8477 12.383 4.7673 12.383 4.6875 12.375ZM5.83125 10.1438C5.8037 10.5928 5.67554 11.0298 5.45625 11.4225C5.7873 11.2709 6.07661 11.0412 6.29935 10.7532C6.52208 10.4651 6.67157 10.1273 6.735 9.76879C6.40912 9.82553 6.10022 9.95499 5.83125 10.1475V10.1438ZM2.6475 9.76879C2.71534 10.1257 2.86652 10.4615 3.08874 10.7489C3.31095 11.0363 3.59792 11.2671 3.92625 11.4225C3.70802 11.0294 3.57993 10.5926 3.55125 10.1438C3.28161 9.9539 2.97276 9.82703 2.6475 9.77254V9.76879Z" fill="#D1B06B"/>
<path id="Vector_6" d="M4.68755 12.3412L4.4213 12.0787C4.35755 12.0112 4.2938 11.9437 4.2338 11.8725C3.75258 11.2914 3.50516 10.5518 3.53983 9.79814C3.5745 9.04445 3.88877 8.33072 4.4213 7.79625L4.68755 7.53375L4.9538 7.79625C5.2359 8.07667 5.45942 8.41039 5.61136 8.77799C5.76329 9.14559 5.8406 9.53974 5.8388 9.9375V9.95625C5.83668 10.6521 5.59276 11.3255 5.1488 11.8612C5.0813 11.9437 5.01755 12.0112 4.9538 12.0787L4.68755 12.3412ZM4.68755 8.64375C4.42634 9.02463 4.28655 9.47566 4.28655 9.9375C4.28655 10.3993 4.42634 10.8504 4.68755 11.2313C4.94597 10.8546 5.08572 10.4093 5.0888 9.9525C5.09422 9.48516 4.95398 9.02774 4.68755 8.64375ZM9.00005 7.5H9.75005V16.5H9.00005V7.5Z" fill="#D1B06B"/>
<path id="Vector_7" d="M12.4124 8.25H6.3374L6.78365 3.375H11.9662L12.4124 8.25ZM7.1624 7.5H11.5874L11.2837 4.125H7.46615L7.1624 7.5Z" fill="#D1B06B"/>
</g>
</g>
</g>
</g>
</g>
</g>
</g>
</g>
</g>
</g>
<defs>
<clipPath id="clip0_0_1">
<rect width="1920" height="6841" fill="white" transform="translate(-500 -2683)"/>
</clipPath>
</defs>
</svg>
