<svg width="24" height="24" viewBox="0 0 24 24" fill="none" xmlns="http://www.w3.org/2000/svg">
<path d="M2.7907 22.585L2.78109 22.6938H2.89031H21.1097H21.2189L21.2093 22.585C20.8526 18.5464 17.4903 15.3687 13.4062 15.3687H10.5938C6.50971 15.3687 3.14739 18.5464 2.7907 22.585ZM5.77187 6.32812C5.77187 2.89403 8.5659 0.1 12 0.1C15.4341 0.1 18.2281 2.89403 18.2281 6.32812C18.2281 9.76223 15.4341 12.5562 12 12.5562C8.5659 12.5562 5.77187 9.76223 5.77187 6.32812ZM6.97813 6.32812C6.97813 9.09728 9.23085 11.35 12 11.35C14.7692 11.35 17.0219 9.09728 17.0219 6.32812C17.0219 3.55897 14.7692 1.30625 12 1.30625C9.23085 1.30625 6.97813 3.55897 6.97813 6.32812ZM13.4062 14.1625C15.817 14.1625 18.0882 15.1202 19.8022 16.8606C21.5078 18.5925 22.4469 20.8779 22.4469 23.2969C22.4469 23.63 22.1768 23.9 21.8438 23.9H2.15625C1.82317 23.9 1.55313 23.63 1.55313 23.2969C1.55313 20.8779 2.49215 18.5925 4.19784 16.8606C5.91182 15.1202 8.18304 14.1625 10.5938 14.1625H13.4062Z" fill="#D1B06B" stroke="#1E1E1E" stroke-width="0.2"/>
</svg>
